<svg xmlns="http://www.w3.org/2000/svg" width="24" height="24"><rect id="backgroundrect" width="100%" height="100%" x="0" y="0" fill="none" stroke="none"/><g class="currentLayer" style=""><title>Layer 1</title><path fill="none" d="M0 0h24v24H0z" id="svg_1"/><path d="M11.5 9C10.12 9 9 10.12 9 11.5s1.12 2.5 2.5 2.5 2.5-1.12 2.5-2.5S12.88 9 11.5 9zM20 4H4c-1.1 0-2 .9-2 2v12c0 1.1.9 2 2 2h16c1.1 0 2-.9 2-2V6c0-1.1-.9-2-2-2zm-3.21 14.21l-2.91-2.91c-.69.44-1.51.7-2.39.7C9.01 16 7 13.99 7 11.5S9.01 7 11.5 7 16 9.01 16 11.5c0 .88-.26 1.69-.7 2.39l2.91 2.9-1.42 1.42z" id="svg_2" class="" fill-opacity="1" fill="#7860ff"/></g></svg>