<svg xmlns="http://www.w3.org/2000/svg" width="25.65289250987371" height="24"><rect id="backgroundrect" width="100%" height="100%" x="0" y="0" fill="none" stroke="none" class="" style=""/><g class="currentLayer" style=""><title>Layer 1</title><path d="M0 0h24v24H0z" fill="none" id="svg_1"/><path d="M18.427882190942764,8.696069990758076 l-4.709076125621795,-6.274358043670655 c-0.20427499175071723,-0.2678079652786255 -0.548317083120346,-0.40171194791793835 -0.8923591744899753,-0.40171194791793835 c-0.3440420913696292,0 -0.6880841827392581,0.13390398263931275 -0.8923591744899753,0.4112765181064607 L7.225011590719223,8.696069990758076 H2.0751315355300903 c-0.5913223445415496,0 -1.0751315355300903,0.43040565848350526 -1.0751315355300903,0.9564570188522339 c0,0.08608113169670112 0.010751315355300913,0.17216226339340218 0.04300526142120363,0.2582433950901032 l2.7308341002464296,8.866356564760208 c0.24728025317192087,0.8034238958358767 1.0751315355300903,1.3964272475242614 2.064252548217773,1.3964272475242614 h13.976709961891174 c0.9891210126876834,0 1.8169722950458531,-0.5930033516883854 2.0750038635730745,-1.3964272475242614 l2.7308341002464296,-8.866356564760208 L24.652893781661987,9.65252700961031 c0,-0.5260513603687287 -0.48380919098854075,-0.9564570188522339 -1.0751315355300903,-0.9564570188522339 h-5.149880055189133 zM9.601052284240723,8.696069990758076 l3.225394606590271,-4.2084108829498295 L16.051841497421265,8.696069990758076 H9.601052284240723 zm3.225394606590271,7.651656150817871 c-1.1826446890830995,0 -2.1502630710601807,-0.8608113169670105 -2.1502630710601807,-1.9129140377044678 s0.9676183819770813,-1.9129140377044678 2.1502630710601807,-1.9129140377044678 s2.1502630710601807,0.8608113169670105 2.1502630710601807,1.9129140377044678 s-0.9676183819770813,1.9129140377044678 -2.1502630710601807,1.9129140377044678 z" id="svg_2" class="" fill-opacity="1" fill="#7860ff"/></g></svg>